<svg version="1.1" id="Layer_1" xmlns="http://www.w3.org/2000/svg" xmlns:xlink="http://www.w3.org/1999/xlink" x="0px" y="0px"
	 width="100%" viewBox="0 0 500 500" enable-background="new 0 0 500 500" xml:space="preserve">
<path fill="#000000" opacity="1.000000" stroke="none" 
	d="
M287.000000,501.000000 
	C191.333359,501.000000 96.166710,501.000000 1.000051,501.000000 
	C1.000034,334.333405 1.000034,167.666794 1.000017,1.000141 
	C167.666565,1.000094 334.333130,1.000094 500.999756,1.000047 
	C500.999847,167.666519 500.999847,334.333038 500.999939,500.999786 
	C429.833344,501.000000 358.666656,501.000000 287.000000,501.000000 
M233.675613,239.861832 
	C234.879135,238.265121 236.010635,236.607513 237.299454,235.082886 
	C241.471695,230.147354 245.956146,225.453537 249.853256,220.312515 
	C256.681152,211.305237 263.162354,202.035141 270.320618,192.139969 
	C268.666962,191.769989 266.943695,191.059326 265.216217,191.048996 
	C250.401917,190.960266 235.586716,190.961319 220.772079,191.013840 
	C213.304031,191.040329 207.147125,196.512054 207.099518,203.926163 
	C206.914642,232.722260 206.992859,261.520264 207.082458,290.317230 
	C207.086807,291.709351 208.129379,293.098236 208.836304,294.856262 
	C213.272308,288.902954 217.267181,284.020844 220.700592,278.771515 
	C223.134796,275.049835 226.314194,274.690521 230.158737,274.954987 
	C233.305801,275.171478 236.522263,275.278107 239.625412,274.843781 
	C241.113144,274.635590 243.227249,273.336212 243.653534,272.061432 
	C245.636841,266.130310 247.129196,260.035004 249.079178,252.978027 
	C244.568039,252.978027 240.862595,253.506882 237.406387,252.806244 
	C234.768158,252.271393 231.967300,250.631912 230.104797,248.664124 
	C227.819702,246.249878 229.791824,244.287674 232.109268,242.742584 
	C232.749115,242.315994 232.812164,241.024292 233.675613,239.861832 
M318.000000,211.532288 
	C317.993317,208.701767 318.103210,205.865143 317.955872,203.041977 
	C317.645660,197.098709 312.424957,191.516617 306.514801,191.107712 
	C302.206085,190.809586 297.840820,190.794693 293.544769,191.164520 
	C292.215424,191.278946 290.419983,192.820465 289.878693,194.136642 
	C286.402771,202.588318 283.197906,211.152023 279.947327,219.695419 
	C279.111786,221.891403 278.432007,224.146637 277.468292,227.004486 
	C281.427368,227.004486 284.489746,226.564560 287.352386,227.132126 
	C290.045746,227.666122 293.702454,228.621887 294.768799,230.574966 
	C295.805450,232.473618 294.865173,236.389374 293.444672,238.520859 
	C288.665558,245.692017 283.274658,252.454666 278.139313,259.389526 
	C274.568115,264.212128 271.032227,269.060883 266.672150,274.998993 
	C279.992035,274.998993 291.764923,275.025085 303.537659,274.990723 
	C312.903931,274.963379 317.972839,269.877533 317.990814,260.475647 
	C318.021393,244.491226 317.999725,228.506683 318.000000,211.532288 
M265.015656,268.514374 
	C267.015320,265.834961 269.044525,263.177032 271.008484,260.471680 
	C275.178986,254.726730 279.327515,248.965744 283.461334,243.194336 
	C285.887238,239.807404 288.267456,236.387756 291.447693,231.877380 
	C282.969208,231.877380 276.280670,231.877380 269.287567,231.877380 
	C276.357605,213.397339 283.243011,195.399872 290.128418,177.402405 
	C289.701843,177.172440 289.275238,176.942459 288.848663,176.712479 
	C270.925903,199.883301 253.003159,223.054108 234.323654,247.203247 
	C242.589417,247.203247 249.210876,247.203247 256.406677,247.203247 
	C251.968018,263.341553 247.643723,279.064056 243.063690,295.716309 
	C244.705658,294.837311 245.566528,294.652405 245.962723,294.121033 
	C249.359909,289.564911 252.599609,284.890381 256.033936,280.363190 
	C258.893860,276.593170 261.952759,272.974060 265.015656,268.514374 
M312.488647,191.566879 
	C312.488647,191.566879 312.442749,191.481430 312.488647,191.566879 
z"/>
<path fill="#1C1D33" opacity="1.000000" stroke="none" 
	d="
M233.407730,239.995682 
	C232.812164,241.024292 232.749115,242.315994 232.109268,242.742584 
	C229.791824,244.287674 227.819702,246.249878 230.104797,248.664124 
	C231.967300,250.631912 234.768158,252.271393 237.406387,252.806244 
	C240.862595,253.506882 244.568039,252.978027 249.079178,252.978027 
	C247.129196,260.035004 245.636841,266.130310 243.653534,272.061432 
	C243.227249,273.336212 241.113144,274.635590 239.625412,274.843781 
	C236.522263,275.278107 233.305801,275.171478 230.158737,274.954987 
	C226.314194,274.690521 223.134796,275.049835 220.700592,278.771515 
	C217.267181,284.020844 213.272308,288.902954 208.836304,294.856262 
	C208.129379,293.098236 207.086807,291.709351 207.082458,290.317230 
	C206.992859,261.520264 206.914642,232.722260 207.099518,203.926163 
	C207.147125,196.512054 213.304031,191.040329 220.772079,191.013840 
	C235.586716,190.961319 250.401917,190.960266 265.216217,191.048996 
	C266.943695,191.059326 268.666962,191.769989 270.320618,192.139969 
	C263.162354,202.035141 256.681152,211.305237 249.853256,220.312515 
	C245.956146,225.453537 241.471695,230.147354 237.299454,235.082886 
	C236.010635,236.607513 234.879135,238.265121 233.407730,239.995682 
z"/>
<path fill="#1C1D33" opacity="1.000000" stroke="none" 
	d="
M318.000000,212.027237 
	C317.999725,228.506683 318.021393,244.491226 317.990814,260.475647 
	C317.972839,269.877533 312.903931,274.963379 303.537659,274.990723 
	C291.764923,275.025085 279.992035,274.998993 266.672150,274.998993 
	C271.032227,269.060883 274.568115,264.212128 278.139313,259.389526 
	C283.274658,252.454666 288.665558,245.692017 293.444672,238.520859 
	C294.865173,236.389374 295.805450,232.473618 294.768799,230.574966 
	C293.702454,228.621887 290.045746,227.666122 287.352386,227.132126 
	C284.489746,226.564560 281.427368,227.004486 277.468292,227.004486 
	C278.432007,224.146637 279.111786,221.891403 279.947327,219.695419 
	C283.197906,211.152023 286.402771,202.588318 289.878693,194.136642 
	C290.419983,192.820465 292.215424,191.278946 293.544769,191.164520 
	C297.840820,190.794693 302.206085,190.809586 306.514801,191.107712 
	C312.424957,191.516617 317.645660,197.098709 317.955872,203.041977 
	C318.103210,205.865143 317.993317,208.701767 318.000000,212.027237 
z"/>
<path fill="#5372FF" opacity="1.000000" stroke="none" 
	d="
M264.969574,268.901245 
	C261.952759,272.974060 258.893860,276.593170 256.033936,280.363190 
	C252.599609,284.890381 249.359909,289.564911 245.962723,294.121033 
	C245.566528,294.652405 244.705658,294.837311 243.063690,295.716309 
	C247.643723,279.064056 251.968018,263.341553 256.406677,247.203247 
	C249.210876,247.203247 242.589417,247.203247 234.323654,247.203247 
	C253.003159,223.054108 270.925903,199.883301 288.848663,176.712479 
	C289.275238,176.942459 289.701843,177.172440 290.128418,177.402405 
	C283.243011,195.399872 276.357605,213.397339 269.287567,231.877380 
	C276.280670,231.877380 282.969208,231.877380 291.447693,231.877380 
	C288.267456,236.387756 285.887238,239.807404 283.461334,243.194336 
	C279.327515,248.965744 275.178986,254.726730 271.008484,260.471680 
	C269.044525,263.177032 267.015320,265.834961 264.969574,268.901245 
z"/>
<path fill="#1C1D33" opacity="1.000000" stroke="none" 
	d="
M312.465698,191.524155 
	C312.442749,191.481430 312.488647,191.566879 312.465698,191.524155 
z"/>
</svg>